<svg width="54" height="55" viewBox="0 0 54 55" fill="none" xmlns="http://www.w3.org/2000/svg">
<path d="M53.9995 18.082C53.9982 16.9997 53.5676 15.962 52.8021 15.1967C52.0367 14.4315 50.9989 14.0011 49.9165 14H42V4.07715C41.9989 2.99626 41.569 1.95996 40.8047 1.19561C40.0405 0.431253 39.0042 0.00127322 37.9233 0H4.084C3.00147 0.00125952 1.96362 0.431821 1.1981 1.19724C0.432589 1.96267 0.00190365 3.00046 0.000514224 4.083L4.00807e-06 38.5801C-0.000793356 38.9544 0.117399 39.3193 0.337516 39.6221C0.557632 39.9249 0.868283 40.1499 1.22461 40.2647C1.4017 40.3214 1.58651 40.3504 1.77246 40.3506C2.05216 40.3506 2.32785 40.2842 2.57678 40.1566C2.82571 40.0291 3.04074 39.8442 3.2041 39.6172L9.7666 30.5498C9.8901 30.3797 10.0521 30.2413 10.2392 30.1457C10.4264 30.0502 10.6336 30.0002 10.8438 30H12V39.917C12.0013 40.9994 12.4318 42.0371 13.1971 42.8026C13.9624 43.568 15.0001 43.9986 16.0825 44H43.168C43.3744 44.0003 43.5779 44.0493 43.7618 44.1432C43.9457 44.237 44.1048 44.373 44.2261 44.54L50.8013 53.6259C51.0204 53.9284 51.3297 54.1537 51.6847 54.2695C52.0398 54.3853 52.4225 54.3856 52.7777 54.2705C53.133 54.1553 53.4427 53.9305 53.6623 53.6284C53.8818 53.3263 54.0001 52.9624 54 52.5889L53.9995 18.082ZM8.147 29.3769L2 37.8701L2.00049 4.08301C2.00119 3.53069 2.22095 3.0012 2.61154 2.61069C3.00214 2.22019 3.53168 2.00057 4.084 2H37.9233C38.474 2.00067 39.0019 2.21974 39.3912 2.60915C39.7805 2.99856 39.9995 3.52651 40 4.07715V25.917C39.9993 26.4692 39.7797 26.9987 39.3892 27.3892C38.9987 27.7796 38.4692 27.9993 37.917 28H10.8438C10.3176 28.0008 9.79899 28.126 9.33034 28.3652C8.86169 28.6045 8.45623 28.9512 8.147 29.3769ZM45.8467 43.3682C45.5397 42.9451 45.1369 42.6006 44.6714 42.3628C44.2059 42.1251 43.6907 42.0007 43.168 42H16.0825C15.5303 41.9993 15.001 41.7796 14.6105 41.3891C14.2201 40.9986 14.0006 40.4692 14 39.917V30H37.917C38.9995 29.9987 40.0373 29.5681 40.8027 28.8027C41.5681 28.0373 41.9987 26.9995 42 25.917V16H49.9165C50.4686 16.0004 50.998 16.2199 51.3886 16.6102C51.7791 17.0006 51.9988 17.5299 51.9995 18.082L52 51.8711L45.8467 43.3682Z" fill="black"/>
<path d="M18.5215 23.2822C18.1006 23.2835 17.6837 23.2013 17.2948 23.0403C16.9059 22.8794 16.5528 22.643 16.2559 22.3447L11.4922 17.5811C10.8397 16.9243 10.4742 16.0356 10.4757 15.1098C10.4772 14.184 10.8457 13.2966 11.5003 12.6419C12.155 11.9873 13.0424 11.6188 13.9682 11.6173C14.894 11.6158 15.7827 11.9813 16.4394 12.6338L18.543 14.7373L25.5694 7.71094C25.8926 7.38538 26.2769 7.12682 26.7002 6.9501C27.1236 6.77338 27.5776 6.68197 28.0364 6.68113C28.4951 6.68028 28.9495 6.77001 29.3735 6.94516C29.7975 7.12032 30.1828 7.37746 30.5072 7.70183C30.8316 8.0262 31.0888 8.41142 31.264 8.8354C31.4392 9.25938 31.5289 9.71378 31.5281 10.1725C31.5273 10.6313 31.436 11.0854 31.2593 11.5087C31.0826 11.9321 30.8241 12.3164 30.4986 12.6397L20.8023 22.3359C20.5046 22.6357 20.1506 22.8736 19.7606 23.036C19.3706 23.1984 18.9523 23.2821 18.5298 23.2822H18.5215ZM17.6699 20.9307C17.7816 21.0426 17.9144 21.1313 18.0605 21.1917C18.2067 21.252 18.3634 21.2828 18.5215 21.2823H18.5249C18.6854 21.2821 18.8442 21.2501 18.9923 21.1883C19.1404 21.1264 19.2747 21.0359 19.3877 20.9219L29.0845 11.2256C29.2244 11.0881 29.3357 10.9243 29.412 10.7435C29.4883 10.5627 29.528 10.3686 29.5288 10.1724C29.5297 9.97624 29.4917 9.78181 29.417 9.60039C29.3423 9.41897 29.2324 9.25414 29.0936 9.11542C28.9549 8.9767 28.79 8.86684 28.6086 8.79218C28.4271 8.71752 28.2327 8.67954 28.0365 8.68044C27.8403 8.68134 27.6462 8.72109 27.4655 8.7974C27.2847 8.87371 27.1209 8.98507 26.9834 9.12505L19.25 16.8584C19.1572 16.9513 19.0469 17.025 18.9256 17.0752C18.8043 17.1255 18.6743 17.1514 18.543 17.1514C18.4117 17.1514 18.2816 17.1255 18.1603 17.0752C18.039 17.025 17.9288 16.9513 17.8359 16.8584L15.0254 14.0479C14.7436 13.7707 14.3637 13.6161 13.9684 13.6177C13.5731 13.6194 13.1945 13.7771 12.915 14.0566C12.6355 14.3361 12.4778 14.7147 12.4761 15.11C12.4745 15.5053 12.6291 15.8852 12.9062 16.167L17.6699 20.9307Z" fill="black"/>
</svg>
